<?xml version="1.0" encoding="UTF-8" standalone="no"?>
<!-- Uploaded to: SVG Repo, www.svgrepo.com, Generator: SVG Repo Mixer Tools -->

<svg
   width="515.242"
   height="368.56799"
   viewBox="-20 0 122.36998 87.534899"
   fill="none"
   version="1.1"
   id="svg1"
   xmlns="http://www.w3.org/2000/svg"
   xmlns:svg="http://www.w3.org/2000/svg">
  <defs
     id="defs1" />
  <path
     fill-rule="evenodd"
     clip-rule="evenodd"
     d="m 101.41999,56.82245 -11.000001,0.26 0.34,29.7 h -24.17 l -1,-29.89 10.83,-0.07 -4.77,-24.42 -17.63,-9.27 8.6,-4.19 c 0.94,-4.57 4.84,-6.52 4.84,-9.3699999 0,-4 -6.56,-4 -6.56,1.3299999 l -4.2,-0.9999999 c 0.48,-5.66 2.48,-9.19000005 9.17,-9.19000005 5.42,0 8,3.00000005 8,8.62000005 0,4.6099999 -3.42,6.2299999 -4,9.6399999 l 26.78,13.41 z m -61.320001,30 H -7.3500108 v -28.6 l -11.7000002,0.28 4.5,-26.31 27.17,-13.25 c 0.94,-4.57 4.84,-6.52 4.84,-9.3699999 0,-4 -6.56,-4 -6.56,1.3299999 L 6.6999892,9.9024501 c 0.48,-5.66 2.48,-9.19000005 9.1699998,-9.19000005 5.42,0 8,3.00000005 8,8.62000005 0,4.6099999 -3.42,6.2299999 -4,9.6399999 l 26.78,13.43 4.77,24.42 -11.17,0.26 z m -2.5,-67.81 c 0.92,-4.62 4.86,-6.58 4.86,-9.4399999 0,-4 -6.56,-4 -6.56,1.3299999 l -4.2,-0.9999999 c 0.48,-5.66 2.48,-9.19000005 9.17,-9.19000005 5.42,0 8,3.00000005 8,8.62000005 0,4.9099999 -3.87,6.4299999 -4.11,10.3199999 z"
     fill="#000000"
     id="path1"
     style="fill:#ffffff" />
</svg>
