<?xml version="1.0" encoding="UTF-8" standalone="no"?>
<!-- Created with Inkscape (http://www.inkscape.org/) -->

<svg
   version="1.1"
   id="svg1"
   width="435.67099"
   height="435.67099"
   viewBox="0 0 435.67098 435.67099"
   xmlns="http://www.w3.org/2000/svg"
   xmlns:svg="http://www.w3.org/2000/svg">
  <defs
     id="defs1" />
  <g
     id="g1"
     style="display:inline"
     transform="matrix(1.8502159,0,0,1.8502159,-164.64069,-110.03399)">
    <path
       style="display:inline;fill:#e07a5f;fill-opacity:1;stroke-width:0.540477"
       d="m 153.69912,82.465237 -3.33886,206.591773 38.81422,1.25207 25.45878,-12.10336 0.83471,-36.72742 17.529,24.62406 24.20671,-15.02485 c 0,0 -30.88442,-65.94242 -27.54557,-63.43828 3.33886,2.50414 28.38029,-47.57871 28.38029,-47.57871 0,0 6.67771,-32.97122 5.843,-28.79764 -0.83472,4.17357 -2.08679,-13.355435 -2.08679,-13.355435 L 254.28219,83.717307 243.32656,72.448665 228.3017,62.74511 h -15.54655 z"
       id="path103" />
    <path
       style="display:inline;fill:#9e4f3a;fill-opacity:1;stroke-width:0.540477"
       d="m 215.46797,107.92402 1.66943,52.587 20.03314,-42.98779 -1.25207,-12.10335 -4.17357,-4.17358 h -6.67772 z"
       id="path105" />
    <path
       style="display:inline;fill:#9e4f3a;fill-opacity:1;stroke-width:0.540477"
       d="m 153.69789,84.092101 -2.36093,205.105659 37.18462,-0.29512 c 0,0 1.47558,-202.449615 5.01697,-201.859381 3.54139,0.590234 -3.54139,-3.836509 -3.54139,-3.836509 l 25.08486,-8.85348 22.42882,-5.902322 -8.85348,-5.016973 -2.70329,-0.845373 -11.52949,0.417356 -26.18916,7.095073 z"
       id="path104" />
    <path
       style="fill:#000000"
       d="m 187.05469,292.28368 c -0.50949,-0.5095 -13.68478,-1.74568 -29.29778,-2.74891 -4.20294,-0.27006 -1.29615,-1.62293 4.24928,-1.97769 2.88629,-0.18464 6.14467,-0.67988 7.24086,-1.10052 l 1.99306,-0.76482 -1.01032,-4.02543 c -0.55567,-2.21399 -1.88345,-4.89857 -2.95061,-5.96573 -2.46622,-2.46622 -2.44656,-3.93243 0.0867,-6.46569 l 2.02699,-2.027 -1.38886,-2.48175 -1.38885,-2.48175 2.26928,-4.54888 2.26928,-4.54888 -2.4623,-1.80047 -2.4623,-1.80048 1.83131,-6.11236 1.83131,-6.11235 -1.72012,-2.07262 -1.72013,-2.07262 2.46371,-3.76009 2.46371,-3.7601 -2.07105,-3.11917 -2.07106,-3.11917 2.07532,-7.94724 2.07531,-7.94725 -2.29557,-1.28467 c -2.73175,-1.52876 -2.97511,-5.92089 -0.54376,-9.8141 l 1.75181,-2.80509 -1.94683,-3.63769 c -1.07076,-2.00073 -1.61044,-4.92406 -1.1993,-6.49629 l 0.74754,-2.85859 -3.63957,-1.94784 -3.63957,-1.94784 0.90097,-8.62 c 0.49553,-4.741 1.82083,-10.4639 2.9451,-12.71756 l 2.04413,-4.09755 -2.04415,-1.6965 -2.04416,-1.6965 v -7.10857 -7.10858 l 2.91481,-2.91481 c 3.67886,-3.67887 7.56959,-3.71382 10.84239,-0.0974 l 2.54971,2.8174 -0.46313,9.20619 c -0.25472,5.06341 -0.0307,9.89555 0.49784,10.73808 0.52854,0.84254 1.71518,5.86286 2.63698,11.15627 l 1.67602,9.62438 -1.63415,3.05344 -1.63416,3.05344 h -4.36668 -4.36668 l -0.84341,2.19791 c -0.46389,1.20886 0.21253,4.42318 1.50314,7.14294 2.91414,6.1411 2.94716,8.00903 0.16046,9.07838 -2.41369,0.92622 -3.02715,4.89926 -0.75647,4.89926 2.47255,0 3.22721,6.64721 1.48795,13.10632 l -1.67237,6.21072 1.5635,1.5635 c 2.0442,2.04421 2.0081,8.69741 -0.0584,10.76391 l -1.6219,1.6219 1.21258,1.94875 c 1.46748,2.35839 0.84519,8.69368 -1.04691,10.65827 l -1.37002,1.4225 3.31647,2.50162 3.31648,2.50162 -2.59387,4.39106 -2.59386,4.39106 0.93551,3.72734 0.9355,3.72734 -1.60222,1.93056 -1.60222,1.93055 2.95371,6.11347 c 1.62454,3.36241 2.56151,6.74806 2.08217,7.52366 l -0.87155,1.41018 h 6.7496 6.7496 l -0.35564,-25.14024 c -0.1956,-13.82714 0.0897,-39.24065 0.63402,-56.47447 0.54431,-17.23382 1.33969,-44.77879 1.76751,-61.21104 0.42782,-16.43224 1.10769,-36.27116 1.51082,-44.08649 l 0.73296,-14.2097 h -9.4599 -9.45991 l 0.23585,5.914473 0.23585,5.914467 -2.00683,1.24029 -2.00684,1.24029 2.42247,2.42247 c 2.54592,2.54592 3.31726,10.23365 1.16051,11.56659 -0.69407,0.42896 -0.92917,2.52076 -0.52244,4.64843 l 0.73951,3.8685 -2.02802,-0.66695 c -1.11541,-0.36682 -2.22513,-2.31209 -2.46605,-4.32281 l -0.43803,-3.65587 2.10933,-1.75058 2.10934,-1.7506 -0.7356,-2.81295 c -0.40459,-1.54713 -1.943,-3.19617 -3.41869,-3.66453 L 165.48762,103.30285 166.4,100.827 c 0.50181,-1.36172 1.46772,-2.85213 2.14646,-3.31203 1.4619,-0.99053 2.04529,-11.15691 0.71649,-12.485713 -1.00451,-1.004506 -12.39045,-1.287305 -13.34627,-0.331489 -0.32419,0.324192 -0.79619,19.400922 -1.04889,42.392722 l -0.45945,41.80332 -1.95247,1.8925 -1.95246,1.89249 0.92041,-9.91673 c 0.50622,-5.45421 0.94727,-25.91429 0.98011,-45.46685 l 0.0597,-35.550087 9.95915,-5.153865 c 15.01224,-7.768843 34.37748,-13.649048 44.03033,-13.369693 2.88584,0.08352 4.92364,-0.370383 4.52846,-1.008664 -0.39519,-0.638282 4.73056,-0.770316 11.39055,-0.293408 l 12.10906,0.867105 2.46548,2.646379 c 1.35601,1.455508 4.65418,4.015823 7.32926,5.689587 6.93891,4.341588 12.94161,12.554332 16.63901,22.765053 l 3.1995,8.835733 -0.39252,10.93053 c -0.38867,10.82346 -2.54062,20.05817 -7.30176,31.33421 -6.03006,14.28128 -11.2481,24.72183 -15.29629,30.60568 -2.40466,3.49505 -4.3721,6.84066 -4.3721,7.43469 0,0.59404 -0.98472,2.16816 -2.18825,3.49806 l -2.18826,2.41799 3.05951,9.35601 c 3.15885,9.65982 5.40201,15.00035 13.85975,32.99738 2.72036,5.7886 4.94611,10.93402 4.94611,11.43427 0,0.50025 1.35333,2.81011 3.0074,5.13304 l 3.0074,4.2235 -11.38748,7.29618 -11.38748,7.29617 -4.79751,2e-4 -4.79751,2e-4 -2.62053,-2.55046 c -1.44129,-1.40276 -3.04882,-3.73974 -3.57228,-5.1933 -0.52346,-1.45356 -1.5562,-2.26926 -2.29497,-1.81267 -0.73877,0.45658 -1.67538,0.006 -2.08134,-1.00068 -0.83872,-2.08037 -1.34301,6.455 -0.9897,16.75108 0.13066,3.80747 -0.35318,6.92268 -1.0752,6.92268 -0.72201,0 -6.78684,2.95124 -13.4774,6.55832 -12.16137,6.55656 -13.53634,7.11024 -14.71934,5.92724 z m 15.67234,-10.37078 9.24884,-5.17225 0.20412,-12.68097 c 0.11227,-6.97454 0.35343,-15.3043 0.53592,-18.5106 0.18248,-3.20629 0.51303,-14.84732 0.73455,-25.86895 0.42709,-21.25003 1.34555,-24.34558 3.89175,-13.11665 0.86336,3.80748 3.31002,13.15309 5.43701,20.76803 2.12699,7.61495 5.15871,18.71096 6.73715,24.65781 1.57844,5.94684 3.03234,10.97085 3.23089,11.16446 0.30358,0.29603 19.60881,-10.52382 21.3367,-11.9584 0.31462,-0.26122 -0.0653,-1.31058 -0.84437,-2.33191 -0.77903,-1.02134 -2.92633,-5.46406 -4.77179,-9.87271 -1.84546,-4.40865 -4.83718,-11.29489 -6.64828,-15.30276 -6.09627,-13.49073 -11.06352,-26.85658 -11.90267,-32.02764 l -0.83349,-5.1362 h 1.35532 c 0.74542,0 2.18535,-2.29542 3.19983,-5.10092 1.01449,-2.80551 2.4579,-5.10092 3.20759,-5.10092 0.74969,0 1.36307,-0.59283 1.36307,-1.3174 0,-0.72457 2.15501,-5.15144 4.7889,-9.83749 6.3956,-11.3786 11.05344,-22.4838 14.26015,-33.99895 l 2.64522,-9.49887 -0.3363,-12.38793 -0.3363,-12.38793 -3.85891,-7.418223 c -2.1224,-4.080023 -6.21927,-9.490641 -9.10414,-12.023596 l -5.24523,-4.605373 -4.68586,-0.219777 c -8.88402,-0.41668 -13.47701,0.485504 -27.85659,5.471758 -7.93447,2.751351 -14.75469,4.674077 -15.15604,4.272725 -1.32202,-1.322014 17.77306,-9.433201 28.79935,-12.23336 l 10.81617,-2.746796 -3.19483,-1.014 c -1.75716,-0.5577 -3.19483,-1.664343 -3.19483,-2.459206 0,-0.794863 -0.56157,-1.098141 -1.24792,-0.67395 -0.68636,0.424191 -4.10865,1.13069 -7.60509,1.569998 -3.49645,0.439309 -7.00104,1.442614 -7.788,2.229567 -0.78695,0.786954 -2.90053,1.430825 -4.69684,1.430825 -1.79631,0 -3.67135,0.655832 -4.16675,1.457405 -0.4954,0.801573 -2.47853,1.457406 -4.40695,1.457406 h -3.50623 l -1.55996,2.914811 -1.55996,2.914811 H 186.42 182.82776 v 2.186109 c 0,2.200605 1.48537,2.741858 6.20391,2.260641 1.40822,-0.143617 2.95257,0.760843 3.43188,2.009911 0.47931,1.249067 1.48487,1.89193 2.23458,1.428585 l 1.36311,-0.842446 -0.74116,3.401276 c -0.40765,1.870703 -1.08222,15.862079 -1.49907,31.091949 -0.41684,15.22989 -1.12282,38.83986 -1.56884,52.4666 -0.80566,24.61433 -1.95201,66.20889 -2.20914,80.15731 -0.0739,4.00786 -0.088,13.68139 -0.0313,21.49673 l 0.10305,14.2097 h 1.6817 c 0.92493,0 5.84368,-2.32751 10.93054,-5.17224 z m 13.43506,-118.34288 c -0.94024,-5.5255 -1.31897,-11.65275 -2.01956,-32.67382 l -0.80966,-24.29372 3.20252,-2.24313 c 4.39216,-3.07638 6.50642,-1.30976 3.02261,2.52562 -1.5614,1.71898 -2.52823,3.97996 -2.14851,5.02441 l 0.6904,1.899 1.99256,-2.6277 1.99256,-2.6277 v 2.1861 c 0,1.20236 -0.96289,3.45916 -2.13976,5.01512 -1.17686,1.55595 -2.11979,4.8351 -2.0954,7.28701 l 0.0444,4.45802 5.3469,-10.51875 c 6.52514,-12.83668 7.9629,-12.97872 2.16249,-0.21364 -10.10654,22.24169 -9.9416,24.57015 0.37306,5.26649 3.92295,-7.3417 7.37971,-12.60729 7.6817,-11.70132 0.30199,0.90597 -3.09636,8.47375 -7.55189,16.81729 -4.45554,8.34356 -8.10098,15.93451 -8.10098,16.8688 0,4.62292 3.09932,0.23848 10.14637,-14.35352 l 7.75225,-16.0522 -1.3541,-4.71581 -1.3541,-4.71581 -4.65876,0.0144 c -2.56232,0.008 -4.96777,-0.79087 -5.34545,-1.77508 -1.01843,-2.65398 1.0097,-3.33403 7.0297,-2.35712 l 5.38417,0.87373 1.58689,2.96511 c 0.87278,1.63081 1.61792,6.95156 1.65587,11.82387 l 0.069,8.85875 -2.56016,7.65996 c -5.48332,16.40604 -18.94508,37.49613 -19.99507,31.32565 z m -66.83507,99.83228 c -0.0336,-14.62871 0.37449,-40.86201 0.90681,-58.29622 l 0.96787,-31.69857 h 1.37844 1.37844 l -0.81439,27.32635 c -0.44792,15.0295 -0.8386,41.2628 -0.86817,58.29623 l -0.0538,30.96986 h -1.41709 -1.41709 z"
       id="path4" />
  </g>
</svg>
